<?xml version="1.0" encoding="UTF-8" standalone="no"?>
<!-- Created with Inkscape (http://www.inkscape.org/) -->

<svg
   width="40.517292mm"
   height="36.707291mm"
   viewBox="0 0 40.517292 36.707291"
   version="1.1"
   id="svg1150"
   xmlns="http://www.w3.org/2000/svg">
  <g id="background">
    <rect
       style="fill:#ffffff;stroke-width:3;fill-opacity:1"
       id="rect1577"
       width="43.60289"
       height="38.331226"
       x="-0.5361011"
       y="-0.5361011" />
  </g>
  <g
     id="layer1"
     transform="translate(3.9,3.9)">
    <path
       class="st0"
       d="M 9.0353539,26.976292"
       id="path4"
       style="fill:#2a3d4d;stroke-width:0.264583" />
    <path
       class="st1"
       d="m 15.438271,6.3387919 c 1.640416,-1.852083 2.169583,-4.709583 2.248958,-6.21770802 h -4.101042 c 0,0 0,0.02646 0,0.02646 h 0.370417 c 0,1.85208402 0.555625,4.07458402 1.481667,6.19125002"
       id="path6"
       style="fill:#fbbf0d;stroke-width:0.264583" />
    <path
       class="st2"
       d="m 29.434729,4.3015009 v 0 l 0.105833,0.370416 c -2.460625,0.873125 -4.28625,2.010834 -5.662083,3.3337497 1.031875,0.449792 2.143125,0.687917 3.254375,0.687917 1.11125,0 2.196042,0.05292 3.598333,-0.502708 z"
       id="path8"
       style="fill:#ea6409;stroke-width:0.264583" />
    <path
       class="st3"
       d="m 23.243479,4.0633759 c -1.799166,-1.084792 -2.69875,-3.38666702 -2.778125,-3.91583402 -0.132291,0 -2.169583,0 -2.169583,0 0,1.50812502 1.42875,5.18583402 4.28625,7.14375002 0.185208,0.1322917 0.370417,0.2381247 0.582083,0.3439587 1.27,-1.2699997 2.751667,-2.2754167 4.392083,-2.9897917 -1.613958,0.132292 -3.4925,-0.105833 -4.312708,-0.582083"
       id="path10"
       style="fill:#f49d54;stroke-width:0.264583" />
    <path
       class="st3"
       d="M 30.731187,8.1908756 29.434729,4.2750419 c -5.953125,2.116667 -8.228541,5.5562497 -9.657291,10.4245831 1.508125,0.07937 2.963333,0.343959 4.418541,0.767292 0.846667,-3.81 1.984375,-5.6620834 6.535208,-7.2760414"
       id="path12"
       style="fill:#f49d54;stroke-width:0.264583" />
    <path
       class="st4"
       d="m 25.783479,16.84275 c 0.264583,2.010834 1.27,4.471459 3.81,7.3025 l 2.69875,-2.434166 c -1.74625,-2.116667 -3.995208,-3.783542 -6.50875,-4.868334"
       id="path14"
       style="fill:#64c6f1;stroke-width:0.264583" />
    <path
       class="st5"
       d="m 29.355354,13.032751 c 0.3175,-1.031875 1.137708,-1.799167 2.169583,-2.090209 l -0.635,-2.1695834 c -2.354791,0.687917 -4.206875,2.5400004 -4.894791,4.8947914 -0.211667,0.767292 -0.291042,1.534584 -0.264584,2.328334 2.010834,0.820208 3.862917,1.984375 5.450417,3.466041 -1.402292,-2.328333 -2.196042,-5.106458 -1.825625,-6.429374"
       id="path16"
       style="fill:#7e97ce;stroke-width:0.264583" />
    <path
       class="st5"
       d="m 29.593479,24.14525 3.01625,-2.69875 c -4.259792,-4.974166 -9.577916,-6.535208 -14.710833,-6.429375 0.423333,1.42875 0.767291,2.883959 1.005416,4.339167 2.910417,-0.238125 7.14375,0.661458 10.689167,4.788958"
       id="path18"
       style="fill:#7e97ce;stroke-width:0.264583" />
    <path
       class="st6"
       d="m 18.454521,21.552334 c -3.227917,1.534583 -3.466042,4.709583 -3.704167,6.588125 L 18.189937,28.749 c 0.449792,-2.090208 0.529167,-4.577291 0.264584,-7.196666"
       id="path20"
       style="fill:#73b0a5;stroke-width:0.264583" />
    <path
       class="st7"
       d="m 19.274729,26.447125 c 0.423334,-0.846666 1.005417,-1.561041 1.825625,-1.905 2.2225,-0.926041 4.7625,-0.291041 6.270625,1.5875 l 1.534583,-1.375833 C 26.788896,22.0815 23.058271,20.044209 19.512854,21.129 c -0.132291,0.02646 -0.238125,0.07937 -0.343958,0.132292 0.185208,1.719792 0.238125,3.466042 0.105833,5.185833"
       id="path22"
       style="fill:#60b467;stroke-width:0.264583" />
    <path
       class="st7"
       d="m 16.946396,13.323792 c -1.322917,0.608542 -2.751667,0.978958 -4.206875,1.005417 1.878541,3.307291 2.804583,7.62 2.010833,13.81125 l 3.81,0.687916 C 19.565771,24.14525 18.692646,18.139209 16.946396,13.323792"
       id="path24"
       style="fill:#60b467;stroke-width:0.264583" />
    <path
       class="st8"
       d="M 1.9974374,7.1854589 0.27764573,10.466292 C 4.0082707,12.424209 7.289104,13.456084 10.278896,13.614834 8.8501459,11.445251 6.4424373,9.1962916 1.9974374,7.1854589"
       id="path26"
       style="fill:#c6cd2c;stroke-width:0.264583" />
    <path
       class="st9"
       d="m 9.5380619,18.43025 c 1.2700001,3.360209 -1.137708,7.037917 -1.9049996,8.440209 l 1.9314586,0.396875 c 1.3493751,-2.54 3.7835411,-6.482292 2.1431251,-10.847917 -0.264584,-0.714375 -0.582084,-1.402292 -0.9525,-2.06375 -2.2489591,-0.07937 -4.4714587,-0.529167 -6.5881253,-1.349375 2.4077083,1.5875 4.6037502,3.439583 5.3710412,5.423958"
       id="path28"
       style="fill:#b0cc4e;stroke-width:0.264583" />
    <path
       class="st9"
       d="M 15.702854,8.5348336 C 12.448479,10.730876 7.9505623,10.281084 1.9974374,7.1590009 L 0.09243743,10.783792 C 4.1670207,12.926917 7.7918123,13.98525 11.019729,13.98525 c 2.69875,0 5.185833,-0.264583 7.276042,-2.037291 -1.005417,-1.005417 -1.878542,-2.1695834 -2.592917,-3.4131254"
       id="path30"
       style="fill:#b0cc4e;stroke-width:0.264583" />
    <path
       class="st10"
       d="m 11.099104,5.4921259 c -2.4606251,1.243541 -6.35,-0.15875 -7.699375,-0.9525 l -1.0847916,2.010833 c 1.5875,0.9260417 4.3920832,1.7727077 7.3818745,1.7727077 1.1906251,0 2.3547921,-0.15875 3.4925001,-0.47625 0.608542,-0.185208 1.190625,-0.502708 1.666875,-0.9260407 -0.714375,-1.508125 -1.217083,-3.122084 -1.481666,-4.7625 -0.396875,1.534583 -1.27,2.831041 -2.275417,3.33375"
       id="path32"
       style="fill:#fdeb7d;stroke-width:0.264583" />
    <path
       class="st10"
       d="M 17.660771,0.12108388 H 13.586187 C 13.612647,4.3544169 16.364312,10.545667 20.015563,12.768167 20.491813,11.445251 21.153271,10.175251 21.973479,9.0110836 19.407021,6.7092089 17.687229,3.0050419 17.660771,0.12108388"
       id="path34"
       style="fill:#fdeb7d;stroke-width:0.264583" />
    <path
       class="st11"
       d="m 29.408271,4.3279589 v 0 l 0.105833,0.370417 c -2.460625,0.873125 -4.28625,1.984375 -5.662083,3.3337497 1.031875,0.449791 2.143125,0.687916 3.254375,0.687916 1.11125,0 2.196041,0.05292 3.598333,-0.47625 z"
       id="path36"
       style="fill:#ef7757;stroke-width:0.264583" />
    <path
       class="st12"
       d="m 25.809937,16.816292 c 0.264584,2.010833 1.27,4.471458 3.81,7.3025 l 2.69875,-2.434167 c -1.772708,-2.116666 -3.995208,-3.783541 -6.50875,-4.868333"
       id="path38"
       style="fill:#5a71b4;stroke-width:0.264583" />
    <path
       class="st13"
       d="m 18.480979,21.552334 c -3.227917,1.534583 -3.466042,4.709583 -3.704167,6.588125 L 18.216396,28.749 c 0.449791,-2.090208 0.529166,-4.577291 0.264583,-7.196666"
       id="path40"
       style="fill:#448d60;stroke-width:0.264583" />
    <path
       class="st14"
       d="M 1.9974374,7.2119169 0.27764573,10.492751 C 4.0082707,12.450667 7.3155623,13.482542 10.305354,13.641292 8.8501459,11.471709 6.4688957,9.2227506 1.9974374,7.2119169"
       id="path42"
       style="fill:#96ab5b;stroke-width:0.264583" />
    <path
       class="st15"
       d="m 15.385354,6.3387919 c 1.640417,-1.852083 2.196042,-4.709583 2.248958,-6.21770802 h -4.074583 v 0.02646 h 0.370417 c 0,1.85208402 0.555625,4.07458402 1.455208,6.19125002"
       id="path44"
       style="fill:#f7d05c;stroke-width:0.264583" />
    <rect
       style="fill:none;stroke-width:3"
       id="rect1376"
       width="31.183212"
       height="31.540613"
       x="-1.1377071"
       y="-2.3599632" />
    <rect
       style="fill:none;stroke-width:3"
       id="rect1378"
       width="13.402527"
       height="16.217058"
       x="18.742708"
       y="14.303846" />
  </g>
</svg>
