<?xml version="1.0" encoding="UTF-8" standalone="no"?>
<!-- Generator: Adobe Illustrator 25.1.0, SVG Export Plug-In . SVG Version: 6.00 Build 0)  -->

<svg
   version="1.1"
   id="Calque_1"
   x="0px"
   y="0px"
   viewBox="0 0 368.4 108.4"
   style="enable-background:new 0 0 368.4 108.4;"
   xml:space="preserve"
   xmlns="http://www.w3.org/2000/svg"><defs
   id="defs113" />
<style
   type="text/css"
   id="style2">
	.st0{fill:#2A3D4D;}
	.st1{fill:#FBBF0D;}
	.st2{fill:#EA6409;}
	.st3{fill:#F49D54;}
	.st4{fill:#64C6F1;}
	.st5{fill:#7E97CE;}
	.st6{fill:#73B0A5;}
	.st7{fill:#60B467;}
	.st8{fill:#C6CD2C;}
	.st9{fill:#B0CC4E;}
	.st10{fill:#FDEB7D;}
	.st11{fill:#EF7757;}
	.st12{fill:#5A71B4;}
	.st13{fill:#448D60;}
	.st14{fill:#96AB5B;}
	.st15{fill:#F7D05C;}
	.st16{fill:#405678;}
</style>
<g id="layer4">
   <rect
     style="fill:#ffffff;fill-opacity:1;stroke-width:11.3386"
     id="rect2095"
     width="368.22766"
     height="108.38335"
     x="0.17231055"
     y="0.086155266" /></g><path
   class="st0"
   d="M 48.931375,96.95606"
   id="path4"
   style="stroke-width:0.901683" />
<path
   class="st1"
   d="m 70.752124,26.624719 c 5.590439,-6.311786 7.393807,-16.049972 7.664312,-21.1895695 h -13.9761 c 0,0 0,0.090168 0,0.090168 h 1.262358 c 0,6.3117875 1.893536,13.8859315 5.04943,21.0994015"
   id="path6"
   style="stroke-width:0.901683" />
<path
   class="st2"
   d="m 118.45119,19.681754 v 0 l 0.36068,1.262358 c -8.38566,2.975556 -14.60728,6.852797 -19.296032,11.361215 3.516562,1.532863 7.303642,2.344378 11.090712,2.344378 3.78707,0 7.48398,0.180337 12.2629,-1.713199 z"
   id="path8"
   style="stroke-width:0.901683" />
<path
   class="st3"
   d="m 97.351796,18.870239 c -6.13145,-3.696904 -9.197175,-11.5415535 -9.46768,-13.3449211 -0.450842,0 -7.393808,0 -7.393808,0 0,5.1395981 4.869093,17.6730031 14.607278,24.3454631 0.631179,0.450842 1.262357,0.811515 1.983705,1.172189 4.328079,-4.328083 9.377509,-7.754481 14.967949,-10.189027 -5.50027,0.450842 -11.90222,-0.360674 -14.697444,-1.983704"
   id="path10"
   style="stroke-width:0.901683" />
<path
   class="st3"
   d="m 122.86945,32.936506 -4.41826,-13.344921 c -20.287879,7.213471 -28.04236,18.93536 -32.911452,35.526343 5.139598,0.270505 10.098859,1.172189 15.058122,2.614883 2.88539,-12.984247 6.76263,-19.296034 22.27159,-24.796305"
   id="path12"
   style="stroke-width:0.901683" />
<path
   class="st4"
   d="m 106.00796,62.421566 c 0.90168,6.852798 4.32809,15.238458 12.98425,24.886474 l 9.19717,-8.295491 C 122.23827,71.799079 114.57396,66.11847 106.00796,62.421566"
   id="path14"
   style="stroke-width:0.901683" />
<path
   class="st5"
   d="m 118.18069,49.43732 c 1.08203,-3.516567 3.87725,-6.13145 7.39381,-7.123302 l -2.16404,-7.393807 c -8.02499,2.344377 -14.33677,8.656164 -16.68115,16.68115 -0.72135,2.614883 -0.99185,5.229766 -0.90169,7.934817 6.8528,2.79522 13.16459,6.762629 18.57469,11.812058 -4.77892,-7.934817 -7.48398,-17.402497 -6.22162,-21.910916"
   id="path16"
   style="stroke-width:0.901683" />
<path
   class="st5"
   d="M 118.99221,87.30804 129.2714,78.110865 C 114.75429,61.159209 96.630449,55.839275 79.137783,56.199948 c 1.442694,4.869093 2.614883,9.828354 3.426399,14.787615 9.918521,-0.811516 24.345458,2.254209 36.428028,16.320477"
   id="path18"
   style="stroke-width:0.901683" />
<path
   class="st6"
   d="M 81.031319,78.471538 C 70.030776,83.701305 69.219261,94.521511 68.407745,100.92347 l 11.72189,2.07387 c 1.532863,-7.123305 1.803368,-15.599132 0.901684,-24.525802"
   id="path20"
   style="stroke-width:0.901683" />
<path
   class="st7"
   d="m 83.826539,95.152689 c 1.442694,-2.885388 3.426398,-5.319934 6.221618,-6.492123 7.574144,-3.155893 16.230313,-0.991852 21.369903,5.410103 l 5.22977,-4.688757 C 109.43436,80.274906 96.720618,73.331941 84.638055,77.028845 c -0.450843,0.09017 -0.811516,0.270504 -1.17219,0.450841 0.631179,5.860945 0.811515,11.812058 0.360674,17.673003"
   id="path22"
   style="stroke-width:0.901683" />
<path
   class="st7"
   d="m 75.891721,50.429172 c -4.508419,2.073872 -9.377512,3.33623 -14.336773,3.426399 6.401956,11.271047 9.557849,25.968494 6.852797,47.067899 l 12.984247,2.34437 c 3.426399,-15.9598 0.450843,-36.428022 -5.500271,-52.838668"
   id="path24"
   style="stroke-width:0.901683" />
<path
   class="st8"
   d="M 24.946585,29.510107 19.085641,40.690986 C 31.799382,47.363447 42.980262,50.880014 53.169289,51.421024 48.300196,44.027217 40.094874,36.362904 24.946585,29.510107"
   id="path26"
   style="stroke-width:0.901683" />
<path
   class="st9"
   d="m 50.644574,67.83167 c 4.328083,11.451384 -3.877241,23.984789 -6.492123,28.763714 l 6.582291,1.352529 c 4.598588,-8.656169 12.894079,-22.091257 7.30364,-36.96904 -0.901684,-2.434547 -1.983705,-4.778925 -3.246062,-7.033134 -7.664312,-0.270505 -15.238457,-1.803368 -22.451927,-4.598588 8.205322,5.410104 15.689298,11.72189 18.304181,18.484519"
   id="path28"
   style="stroke-width:0.901683" />
<path
   class="st9"
   d="M 71.653808,34.108695 C 60.563096,41.59267 45.234471,40.059808 24.946585,29.419939 l -6.492123,12.353069 c 13.885931,7.303638 26.238999,10.910374 37.239541,10.910374 9.197176,0 17.673003,-0.901684 24.796305,-6.942965 -3.426398,-3.426399 -6.401954,-7.393808 -8.8365,-11.631722"
   id="path30"
   style="stroke-width:0.901683" />
<path
   class="st10"
   d="m 55.964509,23.739331 c -8.38566,4.237914 -21.640412,-0.54101 -26.239,-3.246062 l -3.696903,6.852797 c 5.410103,3.155893 14.967952,6.041282 25.156979,6.041282 4.057577,0 8.024986,-0.54101 11.902226,-1.623031 2.073873,-0.631179 4.057577,-1.713199 5.680608,-3.155894 -2.434546,-5.139597 -4.147746,-10.639868 -5.049429,-16.230308 -1.352526,5.229766 -4.328083,9.648017 -7.754481,11.361216"
   id="path32"
   style="stroke-width:0.901683" />
<path
   class="st10"
   d="M 78.326267,5.4351495 H 64.440336 C 64.530505,19.862091 73.908017,40.961492 86.351253,48.535636 87.974284,44.027217 90.228494,39.699134 93.023714,35.731725 84.27738,27.887077 78.416436,15.263503 78.326267,5.4351495"
   id="path34"
   style="stroke-width:0.901683" />
<path
   class="st11"
   d="m 118.36103,19.771922 v 0 l 0.36067,1.262358 c -8.38565,2.975556 -14.60728,6.762629 -19.296032,11.361216 3.516572,1.532862 7.303642,2.344377 11.090712,2.344377 3.78707,0 7.48398,0.180338 12.2629,-1.62303 z"
   id="path36"
   style="stroke-width:0.901683" />
<path
   class="st12"
   d="m 106.09813,62.331398 c 0.90168,6.852797 4.32808,15.238457 12.98424,24.886473 l 9.19718,-8.29549 C 122.23827,71.70891 114.66413,66.028302 106.09813,62.331398"
   id="path38"
   style="stroke-width:0.901683" />
<path
   class="st13"
   d="M 81.121487,78.471538 C 70.120945,83.701305 69.309429,94.521511 68.497914,100.92347 l 11.721889,2.07387 c 1.532863,-7.123305 1.803368,-15.599132 0.901684,-24.525802"
   id="path40"
   style="stroke-width:0.901683" />
<path
   class="st14"
   d="m 24.946585,29.600276 -5.860944,11.18088 C 31.799382,47.453615 43.07043,50.970182 53.259457,51.511192 48.300196,44.117385 40.185042,36.453073 24.946585,29.600276"
   id="path42"
   style="stroke-width:0.901683" />
<path
   class="st15"
   d="m 70.571786,26.624719 c 5.59044,-6.311786 7.483976,-16.049972 7.664313,-21.1895695 H 64.350168 v 0.090168 h 1.262357 c 0,6.3117875 1.893536,13.8859315 4.959261,21.0994015"
   id="path44"
   style="stroke-width:0.901683" />
<path
   class="st11"
   d="m 173.09324,62.962577 6.76262,5.229766 c -4.23791,5.59044 -10.8202,8.836502 -17.85333,8.656165 -12.35307,-0.09017 -22.27159,-10.189027 -22.09126,-22.542096 0.18034,-12.353068 10.18903,-22.27159 22.54209,-22.091253 6.76264,0.09017 13.16459,3.246061 17.4025,8.565996 l -6.76262,5.229766 c -2.52472,-3.696904 -6.67246,-5.860945 -11.09071,-5.770776 -7.93483,0 -13.61543,6.221618 -13.61543,14.336772 0,8.115155 5.6806,14.336773 13.61543,14.336773 4.41825,-0.09017 8.56599,-2.254209 11.09071,-5.951113 z"
   id="path46"
   style="stroke-width:0.901683" />
<path
   class="st11"
   d="m 198.52072,76.848508 c -10.8202,0 -16.95165,-7.574144 -16.95165,-16.410646 0,-8.836501 5.6806,-16.410645 15.68929,-16.410645 8.47583,0 13.9761,5.680608 13.9761,13.615426 0,1.442694 -0.18033,2.885387 -0.45084,4.328082 h -21.36991 c 0.72135,5.680608 4.23792,8.024986 9.01684,8.024986 3.06572,0.09017 5.95111,-1.262357 7.84465,-3.606736 l 5.50027,4.328083 c -2.79522,3.787072 -7.48398,6.13145 -13.25475,6.13145 z m -8.8365,-20.468223 h 13.97609 c -0.0902,-3.516566 -2.97555,-6.221618 -6.40195,-6.13145 -0.0902,0 -0.0902,0 -0.18033,0 -3.87725,0 -6.49212,2.164041 -7.39381,6.13145 z"
   id="path48"
   style="stroke-width:0.901683" />
<path
   class="st11"
   d="m 217.00524,45.199406 h 7.66431 v 2.975556 c 2.07387,-2.254209 4.95926,-3.606735 8.02499,-3.606735 0.90168,0 1.80336,0.180337 2.61488,0.450842 v 7.574144 c -1.08202,-0.270505 -2.25421,-0.450842 -3.4264,-0.450842 -2.97556,-0.09017 -5.77077,1.442694 -7.30364,3.967409 v 19.476371 h -7.66431 z"
   id="path50"
   style="stroke-width:0.901683" />
<path
   class="st11"
   d="m 253.16276,76.848508 c -10.8202,0 -16.95166,-7.574144 -16.95166,-16.410646 0,-8.836501 5.68061,-16.410645 15.6893,-16.410645 8.47583,0 13.9761,5.680608 13.9761,13.615426 0,1.442694 -0.18034,2.885387 -0.45084,4.328082 h -21.27974 c 0.72134,5.680608 4.23791,8.024986 9.01684,8.024986 3.06573,0.09017 5.95112,-1.262357 7.84464,-3.606736 l 5.50028,4.328083 c -2.88539,3.787072 -7.66432,6.13145 -13.34492,6.13145 z m -8.8365,-20.468223 h 13.9761 c -0.0902,-3.516566 -2.97556,-6.221618 -6.40196,-6.13145 -0.0902,0 -0.0902,0 -0.18034,0 -3.9674,0 -6.58228,2.164041 -7.3938,6.13145 z"
   id="path52"
   style="stroke-width:0.901683" />
<path
   class="st11"
   d="m 271.55711,45.199406 h 7.66432 v 2.254209 c 2.16404,-2.254209 5.22976,-3.516566 8.38566,-3.516566 3.78706,-0.09017 7.30363,1.803368 9.28734,4.959261 2.34437,-3.246063 6.22162,-5.04943 10.18902,-4.959261 6.31179,0 11.27105,4.328082 11.27105,12.894078 v 18.755024 h -7.75448 v -18.39435 c 0,-3.696904 -1.9837,-5.951114 -5.4101,-5.951114 -3.4264,0 -5.13961,2.25421 -6.31179,4.328082 0.0902,0.450843 0.0902,0.901684 0.0902,1.352527 v 18.755023 h -7.75448 V 57.191801 c 0,-3.696904 -1.98371,-5.951114 -5.41011,-5.951114 -3.4264,0 -5.31993,2.614884 -6.49212,4.50842 v 19.837044 h -7.66431 z"
   id="path54"
   style="stroke-width:0.901683" />
<path
   class="st11"
   d="m 323.58427,67.380827 c 0,-4.598586 3.60673,-8.024985 10.09886,-9.107006 l 9.28734,-1.62303 v -0.721348 c 0,-3.246061 -2.43455,-5.229765 -5.95112,-5.229765 -2.79522,0 -5.31993,1.352525 -6.85279,3.606734 l -5.59044,-4.328082 c 2.70505,-3.787072 7.21347,-6.041281 12.71374,-6.041281 8.8365,0 13.34492,5.229766 13.34492,11.992394 v 19.656708 h -7.66431 v -2.975557 c -1.89354,2.344378 -5.59044,3.87724 -9.10701,3.87724 -6.13145,0 -10.27919,-3.516567 -10.27919,-9.107007 z m 11.81205,3.065725 c 3.06573,0.09017 5.95112,-1.442693 7.57415,-4.057577 v -4.328082 l -7.21347,1.172189 c -3.24606,0.541011 -4.50842,1.893536 -4.50842,3.696904 0,2.164041 1.53286,3.516566 4.14774,3.516566 z"
   id="path56"
   style="stroke-width:0.901683" />
<path
   class="st16"
   d="m 148.29693,91.906628 0.81151,0.631179 c -0.63118,0.991852 -1.80336,1.62303 -2.97555,1.62303 -2.25421,-0.180337 -3.96741,-2.164041 -3.78707,-4.508419 0.18034,-2.073872 1.80336,-3.696904 3.78707,-3.787072 1.17219,0 2.34437,0.631179 2.97555,1.623031 l -0.81151,0.631178 c -0.45084,-0.811515 -1.35253,-1.262357 -2.25421,-1.262357 -1.7132,0.270505 -2.97555,1.803368 -2.70505,3.606736 0.18033,1.442694 1.35253,2.524714 2.70505,2.705051 0.90168,0 1.7132,-0.450842 2.25421,-1.262357 z"
   id="path58"
   style="stroke-width:0.901683" />
<path
   class="st16"
   d="m 151.63316,86.135851 h 0.99185 v 6.852797 h 2.88539 V 93.9805 h -3.87724 z"
   id="path60"
   style="stroke-width:0.901683" />
<path
   class="st16"
   d="m 158.03512,86.135851 h 0.99184 V 93.9805 h -0.99184 z"
   id="path62"
   style="stroke-width:0.901683" />
<path
   class="st16"
   d="m 162.3632,86.135851 h 1.26236 l 2.16404,3.967409 2.16404,-3.967409 H 169.216 V 93.9805 h -0.99185 v -6.401954 l -2.07388,3.696903 h -0.72134 l -2.07388,-3.696903 V 93.9805 h -0.99185 z"
   id="path64"
   style="stroke-width:0.901683" />
<path
   class="st16"
   d="m 174.53593,86.135851 h 1.26236 l 2.88539,7.844649 h -0.99186 l -0.81151,-2.344377 h -3.33623 l -0.81152,2.344377 h -0.99185 z m 1.9837,4.598588 -1.35252,-3.696904 -1.35252,3.696904 z"
   id="path66"
   style="stroke-width:0.901683" />
<path
   class="st16"
   d="m 179.58536,86.135851 h 5.77077 v 0.991852 h -2.34437 V 93.9805 h -0.99186 v -6.852797 h -2.34437 z"
   id="path68"
   style="stroke-width:0.901683" />
<path
   class="st16"
   d="m 196.71735,93.9805 -0.81152,-0.811515 c -0.541,0.631179 -1.44269,1.08202 -2.2542,0.991852 -1.26236,0.09017 -2.43454,-0.901684 -2.52472,-2.164041 0,-0.09017 0,-0.180337 0,-0.270505 0,-0.901684 0.54101,-1.803368 1.4427,-2.164041 -0.45084,-0.450842 -0.72135,-1.17219 -0.72135,-1.803368 -0.0902,-0.991852 0.72135,-1.893536 1.7132,-1.893536 0.0902,0 0.18033,0 0.2705,0 0.99186,-0.09017 1.80337,0.721347 1.89354,1.7132 0,0.09017 0,0.09017 0,0.180336 0,0.991852 -0.72135,1.803368 -1.62303,2.073873 l 1.80336,1.893536 c 0.36068,-0.631179 0.54102,-1.352526 0.72135,-1.983704 h 0.90169 c -0.18034,0.991852 -0.54101,1.893536 -0.99186,2.705051 l 1.4427,1.532862 z m -2.97556,-0.631179 c 0.63118,0 1.26236,-0.270505 1.62304,-0.811514 l -2.16405,-2.254211 -0.0902,-0.09017 c -0.63117,0.270506 -1.08201,0.901684 -0.99184,1.532863 0,0.901684 0.63118,1.62303 1.62302,1.62303 -0.0902,0 -0.0902,0 0,0 z m -0.2705,-4.057577 c 0.90168,-0.270505 1.35253,-0.721346 1.35253,-1.442694 0,-0.54101 -0.36068,-0.991852 -0.99186,-1.08202 0,0 0,0 -0.0902,0 -0.54101,0 -0.99184,0.360673 -1.08201,0.991852 0,0 0,0.09017 0,0.09017 0.0902,0.54101 0.36067,1.082021 0.81151,1.442694 z"
   id="path70"
   style="stroke-width:0.901683" />
<path
   class="st16"
   d="m 203.38981,86.135851 h 5.77078 v 0.991852 h -2.34438 V 93.9805 h -0.99185 v -6.852797 h -2.34438 z"
   id="path72"
   style="stroke-width:0.901683" />
<path
   class="st16"
   d="m 211.59514,86.135851 h 3.87723 v 0.901684 h -2.88538 v 2.524715 h 2.52471 v 0.901684 h -2.52471 v 2.614882 h 2.88538 V 93.9805 h -3.87723 z"
   id="path74"
   style="stroke-width:0.901683" />
<path
   class="st16"
   d="m 218.44793,86.135851 h 1.89354 c 1.17219,-0.09017 2.16404,0.721347 2.34438,1.893536 0,0.09017 0,0.180337 0,0.360673 0.0902,0.811516 -0.45084,1.623031 -1.17219,1.983705 l 2.34437,3.696904 h -1.17218 l -2.07387,-3.426399 h -1.17219 v 3.426399 h -0.99185 z m 0.99186,0.901684 v 2.614883 h 0.99184 c 0.72135,0 1.35253,-0.54101 1.35253,-1.262358 0,-0.721346 -0.54101,-1.352525 -1.26236,-1.352525 0,0 0,0 0,0 z"
   id="path76"
   style="stroke-width:0.901683" />
<path
   class="st16"
   d="m 226.02207,86.135851 h 1.89354 c 1.17219,-0.09017 2.25421,0.721347 2.34438,1.893536 0,0.09017 0,0.180337 0,0.270505 0,0.811516 -0.45084,1.623031 -1.17219,1.983704 l 2.34438,3.696904 h -1.08202 l -2.07387,-3.426398 H 227.1041 V 93.9805 h -0.99185 z m 0.99186,0.901684 v 2.614883 h 0.99185 c 0.72135,0 1.35253,-0.54101 1.35253,-1.262358 0,-0.721346 -0.54102,-1.352525 -1.26236,-1.352525 0,0 0,0 0,0 z"
   id="path78"
   style="stroke-width:0.901683" />
<path
   class="st16"
   d="m 233.59622,86.135851 h 0.99186 V 93.9805 h -0.99186 z"
   id="path80"
   style="stroke-width:0.901683" />
<path
   class="st16"
   d="m 237.11279,86.135851 h 5.77077 v 0.991852 h -2.34438 V 93.9805 h -0.99184 v -6.852797 h -2.34439 v -0.991852 z"
   id="path82"
   style="stroke-width:0.901683" />
<path
   class="st16"
   d="m 254.69562,86.135851 h 0.99186 V 93.9805 h -0.99186 z"
   id="path84"
   style="stroke-width:0.901683" />
<path
   class="st16"
   d="m 258.93353,86.135851 h 1.89354 c 1.17219,-0.09017 2.16404,0.721347 2.34438,1.893536 0,0.09017 0,0.180337 0,0.360673 0.0902,0.811516 -0.45084,1.623031 -1.17219,1.983705 l 2.34438,3.696904 h -1.17219 l -2.07387,-3.426399 h -1.17219 v 3.426399 h -0.99186 z m 0.99186,0.901684 v 2.614883 h 0.99185 c 0.72134,0 1.35252,-0.54101 1.35252,-1.262358 0,-0.721346 -0.54101,-1.352525 -1.26236,-1.352525 0,0 0,0 0,0 z"
   id="path86"
   style="stroke-width:0.901683" />
<path
   class="st16"
   d="m 266.59784,86.135851 h 3.87725 v 0.901684 h -2.88539 v 2.524715 h 2.52471 v 0.901684 h -2.52471 v 2.614882 h 2.88539 V 93.9805 h -3.87725 z"
   id="path88"
   style="stroke-width:0.901683" />
<path
   class="st16"
   d="m 273.54081,92.177132 c 0.36068,0.631179 0.99186,0.991853 1.7132,1.082021 0.63118,0.09017 1.26236,-0.450842 1.26236,-1.082021 0,-0.09017 0,-0.09017 0,-0.180336 0,-1.803368 -3.4264,-1.352526 -3.4264,-3.967409 0,-1.172189 0.90169,-2.073873 2.07388,-2.164041 0,0 0.0902,0 0.0902,0 0.90169,0 1.80337,0.450842 2.25421,1.262357 l -0.72135,0.721347 c -0.2705,-0.631179 -0.90168,-0.991852 -1.53286,-0.991852 -0.63118,0 -1.08202,0.450842 -1.17219,0.991852 0,0 0,0.09017 0,0.09017 0,1.713199 3.4264,1.352525 3.4264,3.967409 0.0902,1.172188 -0.81151,2.164041 -1.9837,2.254209 -0.0902,0 -0.18034,0 -0.18034,0 -0.99185,0 -1.89354,-0.450842 -2.43454,-1.262357 z"
   id="path90"
   style="stroke-width:0.901683" />
<path
   class="st16"
   d="m 284.27085,86.135851 h 2.79522 c 2.16404,0.09017 3.87724,1.983704 3.6969,4.147745 -0.0902,1.983705 -1.71319,3.606736 -3.6969,3.696904 h -2.79522 z m 0.99185,0.991852 v 5.860945 h 1.80337 c 1.62303,-0.09017 2.88539,-1.532862 2.79522,-3.155893 -0.0902,-1.532863 -1.26236,-2.705052 -2.79522,-2.79522 z"
   id="path92"
   style="stroke-width:0.901683" />
<path
   class="st16"
   d="m 293.46803,86.135851 h 3.87724 v 0.901684 h -2.8854 v 2.524715 h 2.52472 v 0.901684 h -2.52472 v 2.614882 h 2.8854 V 93.9805 h -3.87724 z"
   id="path94"
   style="stroke-width:0.901683" />
<path
   class="st16"
   d="m 304.10789,86.135851 h 2.79522 c 2.16404,0.09017 3.87725,1.983704 3.6969,4.147745 -0.0902,1.983705 -1.71319,3.606736 -3.6969,3.696904 h -2.79522 z m 0.99186,0.991852 v 5.860945 h 1.80336 c 1.62303,-0.09017 2.88539,-1.532862 2.79522,-3.155893 -0.0902,-1.532863 -1.26236,-2.705052 -2.79522,-2.79522 z"
   id="path96"
   style="stroke-width:0.901683" />
<path
   class="st16"
   d="m 313.39524,86.135851 h 3.87724 v 0.901684 h -2.88539 v 2.524715 h 2.52472 v 0.901684 h -2.52472 v 2.614882 h 2.88539 V 93.9805 h -3.87724 z"
   id="path98"
   style="stroke-width:0.901683" />
<path
   class="st16"
   d="m 320.15787,86.135851 h 1.26235 l 2.16405,3.967409 2.16404,-3.967409 h 1.26235 V 93.9805 h -0.99185 v -6.401954 l -2.07387,3.696903 h -0.72135 l -2.16404,-3.696903 V 93.9805 h -0.90168 z"
   id="path100"
   style="stroke-width:0.901683" />
<path
   class="st16"
   d="m 332.3306,86.135851 h 1.26235 l 2.88539,7.844649 h -0.99185 l -0.81151,-2.344377 h -3.33624 l -0.81151,2.344377 h -0.99185 z m 1.9837,4.598588 -1.35253,-3.696904 -1.35252,3.696904 z"
   id="path102"
   style="stroke-width:0.901683" />
<path
   class="st16"
   d="m 338.91289,86.135851 h 0.99185 V 93.9805 h -0.99185 z"
   id="path104"
   style="stroke-width:0.901683" />
<path
   class="st16"
   d="m 343.24097,86.135851 h 1.26236 l 4.05758,6.582292 v -6.582292 h 0.99185 V 93.9805 h -1.26236 l -4.05757,-6.582292 V 93.9805 h -0.99186 z"
   id="path106"
   style="stroke-width:0.901683" />
<path
   class="st16"
   d="m 251.9004,90.283596 c 0,2.254211 -1.53286,4.147747 -3.78707,4.147747 -2.25421,0 -3.78707,-1.893536 -3.78707,-4.147747 0,-2.254209 1.53286,-4.147745 3.78707,-4.147745 2.25421,-0.09017 3.78707,1.893536 3.78707,4.147745 z m -0.99185,0 c 0,-1.713198 -1.17219,-3.155893 -2.79522,-3.155893 -1.62303,0 -2.79522,1.442695 -2.79522,3.155893 0,1.7132 1.17219,3.155894 2.79522,3.155894 1.62303,0 2.79522,-1.442694 2.79522,-3.155894 z"
   id="path108"
   style="stroke-width:0.901683" />
</svg>
